<?xml version="1.0" encoding="UTF-8" standalone="no"?>
<!DOCTYPE svg PUBLIC "-//W3C//DTD SVG 1.1//EN"
 "http://www.w3.org/Graphics/SVG/1.1/DTD/svg11.dtd">
<!-- Generated by graphviz version 2.42.3 (20191010.1750)
 -->
<!-- Title: %3 Pages: 1 -->
<svg width="134pt" height="280pt"
 viewBox="0.00 0.00 134.00 280.29" xmlns="http://www.w3.org/2000/svg" xmlns:xlink="http://www.w3.org/1999/xlink">
<g id="graph0" class="graph" transform="scale(1 1) rotate(0) translate(4 276.29)">
<title>%3</title>
<polygon fill="white" stroke="transparent" points="-4,4 -4,-276.29 130,-276.29 130,4 -4,4"/>
<!-- &#45;6139311923621540456 -->
<g id="node1" class="node">
<title>&#45;6139311923621540456</title>
<ellipse fill="none" stroke="black" cx="63" cy="-176.24" rx="24.1" ry="24.1"/>
<text text-anchor="middle" x="63" y="-172.54" font-family="Times,serif" font-size="14.00">add</text>
</g>
<!-- 4189371053606164045 -->
<g id="node2" class="node">
<title>4189371053606164045</title>
<polygon fill="none" stroke="black" points="90,-272.29 36,-272.29 36,-236.29 90,-236.29 90,-272.29"/>
</g>
<!-- &#45;6139311923621540456&#45;&gt;4189371053606164045 -->
<g id="edge1" class="edge">
<title>&#45;6139311923621540456&#45;&gt;4189371053606164045</title>
<path fill="none" stroke="black" d="M63,-200.47C63,-208.58 63,-217.75 63,-226.15"/>
<polygon fill="black" stroke="black" points="59.5,-226.24 63,-236.24 66.5,-226.24 59.5,-226.24"/>
</g>
<!-- &#45;3834882562594097935 -->
<g id="node3" class="node">
<title>&#45;3834882562594097935</title>
<polygon fill="none" stroke="black" points="54,-116.2 0,-116.2 0,-80.2 54,-80.2 54,-116.2"/>
</g>
<!-- &#45;3834882562594097935&#45;&gt;&#45;6139311923621540456 -->
<g id="edge2" class="edge">
<title>&#45;3834882562594097935&#45;&gt;&#45;6139311923621540456</title>
<path fill="none" stroke="black" d="M35.17,-116.45C39.19,-124.95 44.16,-135.45 48.79,-145.22"/>
<polygon fill="black" stroke="black" points="45.63,-146.72 53.07,-154.26 51.95,-143.73 45.63,-146.72"/>
</g>
<!-- &#45;735479993639113548 -->
<g id="node4" class="node">
<title>&#45;735479993639113548</title>
<polygon fill="none" stroke="black" points="126,-116.2 72,-116.2 72,-80.2 126,-80.2 126,-116.2"/>
</g>
<!-- &#45;735479993639113548&#45;&gt;&#45;6139311923621540456 -->
<g id="edge3" class="edge">
<title>&#45;735479993639113548&#45;&gt;&#45;6139311923621540456</title>
<path fill="none" stroke="black" d="M90.83,-116.45C86.81,-124.95 81.84,-135.45 77.21,-145.22"/>
<polygon fill="black" stroke="black" points="74.05,-143.73 72.93,-154.26 80.37,-146.72 74.05,-143.73"/>
</g>
<!-- 1831597454465840383 -->
<g id="node5" class="node">
<title>1831597454465840383</title>
<ellipse fill="none" stroke="black" cx="99" cy="-22.1" rx="22.2" ry="22.2"/>
<text text-anchor="middle" x="99" y="-18.4" font-family="Times,serif" font-size="14.00">inc</text>
</g>
<!-- 1831597454465840383&#45;&gt;&#45;735479993639113548 -->
<g id="edge4" class="edge">
<title>1831597454465840383&#45;&gt;&#45;735479993639113548</title>
<path fill="none" stroke="black" d="M99,-44.53C99,-52.46 99,-61.57 99,-69.95"/>
<polygon fill="black" stroke="black" points="95.5,-70.04 99,-80.04 102.5,-70.04 95.5,-70.04"/>
</g>
<!-- 8621164822606219490 -->
<g id="node6" class="node">
<title>8621164822606219490</title>
<ellipse fill="none" stroke="black" cx="27" cy="-22.1" rx="22.2" ry="22.2"/>
<text text-anchor="middle" x="27" y="-18.4" font-family="Times,serif" font-size="14.00">inc</text>
</g>
<!-- 8621164822606219490&#45;&gt;&#45;3834882562594097935 -->
<g id="edge5" class="edge">
<title>8621164822606219490&#45;&gt;&#45;3834882562594097935</title>
<path fill="none" stroke="black" d="M27,-44.53C27,-52.46 27,-61.57 27,-69.95"/>
<polygon fill="black" stroke="black" points="23.5,-70.04 27,-80.04 30.5,-70.04 23.5,-70.04"/>
</g>
</g>
</svg>
